<svg width="24" height="24" viewBox="0 0 24 24" fill="none" xmlns="http://www.w3.org/2000/svg">
<path d="M20.075 23.5L19.1 21.55L17.15 20.575L19.1 19.65L20.075 17.65L21 19.65L23 20.575L21 21.55L20.075 23.5ZM11.525 24H15.2L14.875 22.5H11.525C11.175 22.5 10.8292 22.4667 10.4875 22.4C10.1458 22.3333 9.85833 22.1833 9.625 21.95L3.25 15.325L3.925 14.7L9.875 17.925V4.575C9.875 4.39167 9.93333 4.24167 10.05 4.125C10.1667 4.00833 10.3167 3.95 10.5 3.95C10.6833 3.95 10.8333 4.00833 10.95 4.125C11.0667 4.24167 11.125 4.39167 11.125 4.575V12H13V2.125C13 1.94167 13.0583 1.79167 13.175 1.675C13.2917 1.55833 13.4417 1.5 13.625 1.5C13.8083 1.5 13.9583 1.55833 14.075 1.675C14.1917 1.79167 14.25 1.94167 14.25 2.125V12H16.125V3.05C16.125 2.86667 16.1833 2.71667 16.3 2.6C16.4167 2.48333 16.5667 2.425 16.75 2.425C16.9333 2.425 17.0833 2.48333 17.2 2.6C17.3167 2.71667 17.375 2.86667 17.375 3.05V12H19.25V6.225C19.25 6.04167 19.3083 5.89167 19.425 5.775C19.5417 5.65833 19.6917 5.6 19.875 5.6C20.0583 5.6 20.2083 5.65833 20.325 5.775C20.4417 5.89167 20.5 6.04167 20.5 6.225V15.7H22V6.225C22 5.64167 21.7917 5.14167 21.375 4.725C20.9583 4.30833 20.4583 4.1 19.875 4.1C19.6917 4.1 19.5125 4.11667 19.3375 4.15C19.1625 4.18333 19.0083 4.25833 18.875 4.375V3.225C18.875 2.59167 18.6708 2.05 18.2625 1.6C17.8542 1.15 17.35 0.925 16.75 0.925C16.5333 0.925 16.325 0.954167 16.125 1.0125C15.925 1.07083 15.7333 1.16667 15.55 1.3C15.4 0.9 15.1542 0.583333 14.8125 0.35C14.4708 0.116667 14.0833 0 13.65 0C13.0667 0 12.5625 0.208333 12.1375 0.625C11.7125 1.04167 11.5 1.54167 11.5 2.125V2.775C11.3667 2.65833 11.2125 2.575 11.0375 2.525C10.8625 2.475 10.6833 2.45 10.5 2.45C9.91667 2.45 9.41667 2.65833 9 3.075C8.58333 3.49167 8.375 3.99167 8.375 4.575V15.475L4.425 13.25C4.14167 13.1 3.85 13.0708 3.55 13.1625C3.25 13.2542 2.98333 13.4083 2.75 13.625L1 15.15L8.425 22.85C8.825 23.2667 9.29583 23.5625 9.8375 23.7375C10.3792 23.9125 10.9417 24 11.525 24ZM3.425 7.4L2.575 5.575L0.75 4.725L2.575 3.875L3.425 2.05L4.275 3.85L6.1 4.8L4.3 5.575L3.425 7.4Z" fill="#80FF00"/>
</svg>
