<svg width="357" height="39" viewBox="0 0 357 39" fill="none" xmlns="http://www.w3.org/2000/svg">
<path d="M17.44 3.34402C19.616 3.34402 21.392 3.64802 22.768 4.25602C24.144 4.86402 25.376 5.60002 26.464 6.46402C26.848 6.75202 27.168 6.89602 27.424 6.89602C28.032 6.89602 28.432 5.93602 28.624 4.01602H29.728C29.664 5.26402 29.616 6.78402 29.584 8.57602C29.552 10.336 29.536 12.688 29.536 15.632H28.432C28.208 13.712 27.856 12.048 27.376 10.64C26.928 9.20002 26.08 7.96802 24.832 6.94402C24.064 6.20802 23.104 5.63202 21.952 5.21602C20.832 4.80002 19.696 4.59202 18.544 4.59202C16.784 4.59202 15.28 5.05602 14.032 5.98402C12.784 6.88002 11.76 8.11202 10.96 9.68002C10.16 11.248 9.56797 13.024 9.18397 15.008C8.79997 16.96 8.60797 18.992 8.60797 21.104C8.60797 26.864 9.39197 31.072 10.96 33.728C12.56 36.384 14.848 37.712 17.824 37.712C18.592 37.712 19.264 37.616 19.84 37.424C20.416 37.232 20.88 37.008 21.232 36.752C21.68 36.432 21.984 36.096 22.144 35.744C22.304 35.36 22.384 34.864 22.384 34.256V29.552C22.384 28.08 22.256 26.992 22 26.288C21.776 25.552 21.312 25.056 20.608 24.8C19.904 24.544 18.88 24.4 17.536 24.368V23.408C18.208 23.44 19.008 23.472 19.936 23.504C20.896 23.504 21.888 23.52 22.912 23.552C23.936 23.552 24.88 23.552 25.744 23.552C27.088 23.552 28.32 23.536 29.44 23.504C30.56 23.472 31.472 23.44 32.176 23.408V24.368C31.568 24.4 31.104 24.512 30.784 24.704C30.496 24.896 30.288 25.28 30.16 25.856C30.064 26.432 30.016 27.312 30.016 28.496V38H29.056C29.024 37.456 28.896 36.864 28.672 36.224C28.48 35.584 28.144 35.264 27.664 35.264C27.44 35.264 27.136 35.328 26.752 35.456C26.4 35.552 25.84 35.824 25.072 36.272C23.888 36.944 22.64 37.52 21.328 38C20.016 38.448 18.64 38.672 17.2 38.672C13.488 38.672 10.352 37.984 7.79197 36.608C5.23197 35.232 3.29596 33.264 1.98396 30.704C0.703965 28.112 0.0639648 25.008 0.0639648 21.392C0.0639648 17.744 0.799965 14.576 2.27196 11.888C3.77596 9.20002 5.82397 7.10402 8.41597 5.60002C11.04 4.09602 14.048 3.34402 17.44 3.34402Z" fill="#141414"/>
<path d="M40.9791 38.336C39.5391 38.336 38.3391 38.064 37.3791 37.52C36.4191 36.976 35.7151 36.256 35.2671 35.36C34.8191 34.432 34.5951 33.424 34.5951 32.336C34.5951 30.96 34.8991 29.84 35.5071 28.976C36.1471 28.112 36.9631 27.408 37.9551 26.864C38.9471 26.32 39.9871 25.872 41.0751 25.52C42.1951 25.168 43.2511 24.832 44.2431 24.512C45.2671 24.16 46.0831 23.76 46.6911 23.312C47.3311 22.832 47.6511 22.224 47.6511 21.488V17.744C47.6511 16.912 47.5071 16.176 47.2191 15.536C46.9631 14.864 46.5471 14.352 45.9711 14C45.4271 13.648 44.7071 13.472 43.8111 13.472C43.1711 13.472 42.5311 13.568 41.8911 13.76C41.2511 13.92 40.7231 14.208 40.3071 14.624C41.2031 14.944 41.8911 15.44 42.3711 16.112C42.8831 16.752 43.1391 17.488 43.1391 18.32C43.1391 19.408 42.7551 20.272 41.9871 20.912C41.2511 21.552 40.3711 21.872 39.3471 21.872C38.1951 21.872 37.3151 21.52 36.7071 20.816C36.1311 20.08 35.8431 19.2 35.8431 18.176C35.8431 17.248 36.0671 16.48 36.5151 15.872C36.9951 15.264 37.6511 14.688 38.4831 14.144C39.3791 13.632 40.4511 13.232 41.6991 12.944C42.9791 12.656 44.3551 12.512 45.8271 12.512C47.2991 12.512 48.6271 12.672 49.8111 12.992C50.9951 13.28 51.9871 13.824 52.7871 14.624C53.5231 15.36 54.0031 16.272 54.2271 17.36C54.4511 18.416 54.5631 19.76 54.5631 21.392V34.448C54.5631 35.248 54.6431 35.808 54.8031 36.128C54.9631 36.416 55.2351 36.56 55.6191 36.56C55.9071 36.56 56.1791 36.48 56.4351 36.32C56.7231 36.16 57.0271 35.968 57.3471 35.744L57.8271 36.56C57.1551 37.136 56.3711 37.584 55.4751 37.904C54.6111 38.192 53.6351 38.336 52.5471 38.336C51.3631 38.336 50.4191 38.176 49.7151 37.856C49.0111 37.504 48.4991 37.04 48.1791 36.464C47.8911 35.888 47.7471 35.216 47.7471 34.448C46.9791 35.664 46.0511 36.624 44.9631 37.328C43.8751 38 42.5471 38.336 40.9791 38.336ZM44.3871 35.264C45.0271 35.264 45.6031 35.12 46.1151 34.832C46.6591 34.512 47.1711 34 47.6511 33.296V23.456C47.3631 23.936 46.9631 24.368 46.4511 24.752C45.9391 25.136 45.3951 25.536 44.8191 25.952C44.2431 26.336 43.6831 26.768 43.1391 27.248C42.6271 27.728 42.2111 28.32 41.8911 29.024C41.5711 29.728 41.4111 30.576 41.4111 31.568C41.4111 32.816 41.6831 33.744 42.2271 34.352C42.7711 34.96 43.4911 35.264 44.3871 35.264Z" fill="#141414"/>
<path d="M75.6628 12.512C78.1588 12.512 80.2228 13.536 81.8548 15.584C83.5188 17.6 84.3508 20.72 84.3508 24.944C84.3508 28.272 83.8388 30.944 82.8148 32.96C81.8228 34.976 80.4948 36.432 78.8308 37.328C77.1668 38.224 75.3428 38.672 73.3588 38.672C72.0468 38.672 70.8308 38.448 69.7108 38C68.5908 37.552 67.6308 36.816 66.8308 35.792L67.5028 35.552C68.0788 36.256 68.7508 36.784 69.5188 37.136C70.3188 37.488 71.1028 37.664 71.8708 37.664C73.6308 37.664 74.9428 36.672 75.8068 34.688C76.6708 32.704 77.1028 29.68 77.1028 25.616C77.1028 22.864 76.9268 20.688 76.5748 19.088C76.2548 17.456 75.7748 16.304 75.1348 15.632C74.4948 14.928 73.7268 14.576 72.8308 14.576C71.7108 14.576 70.6868 15.04 69.7588 15.968C68.8308 16.864 68.3028 18.128 68.1748 19.76L67.9348 18.08C68.5108 16.256 69.4868 14.88 70.8628 13.952C72.2388 12.992 73.8388 12.512 75.6628 12.512ZM68.3188 0.464015V37.04C67.5188 36.912 66.7028 36.912 65.8708 37.04C65.0388 37.168 64.2708 37.392 63.5668 37.712C62.8628 38 62.2708 38.352 61.7908 38.768L61.0708 38.336C61.1988 37.888 61.2788 37.44 61.3108 36.992C61.3748 36.544 61.4068 36.096 61.4068 35.648V6.22402C61.4068 4.78402 61.1828 3.72802 60.7348 3.05602C60.3188 2.35202 59.5188 2.00002 58.3348 2.00002V0.992017C59.3588 1.08802 60.3508 1.13602 61.3108 1.13602C62.6228 1.13602 63.8708 1.08802 65.0548 0.992017C66.2388 0.864017 67.3268 0.688016 68.3188 0.464015Z" fill="#141414"/>
<path d="M103.836 12.512C104.86 12.512 105.692 12.736 106.332 13.184C106.972 13.6 107.436 14.144 107.724 14.816C108.044 15.488 108.204 16.192 108.204 16.928C108.204 18.112 107.852 19.088 107.148 19.856C106.476 20.592 105.58 20.96 104.46 20.96C103.34 20.96 102.46 20.688 101.82 20.144C101.212 19.568 100.908 18.816 100.908 17.888C100.908 16.992 101.1 16.256 101.484 15.68C101.9 15.072 102.412 14.56 103.02 14.144C102.572 14.016 102.124 14.032 101.676 14.192C101.068 14.288 100.492 14.544 99.9478 14.96C99.4038 15.344 98.9398 15.84 98.5558 16.448C98.1718 17.024 97.8678 17.664 97.6438 18.368C97.4198 19.04 97.3078 19.696 97.3078 20.336V33.056C97.3078 34.592 97.6758 35.632 98.4118 36.176C99.1798 36.72 100.316 36.992 101.82 36.992V38C101.084 37.968 100.012 37.936 98.6038 37.904C97.1958 37.84 95.7238 37.808 94.1878 37.808C92.9078 37.808 91.6118 37.84 90.2998 37.904C88.9878 37.936 87.9958 37.968 87.3238 38V36.992C88.4438 36.992 89.2278 36.752 89.6758 36.272C90.1558 35.792 90.3958 34.88 90.3958 33.536V18.416C90.3958 16.976 90.1718 15.92 89.7238 15.248C89.3078 14.544 88.5078 14.192 87.3238 14.192V13.184C88.3478 13.28 89.3398 13.328 90.2998 13.328C91.6438 13.328 92.8918 13.28 94.0438 13.184C95.2278 13.056 96.3158 12.88 97.3078 12.656V17.12C97.6918 16.256 98.2038 15.472 98.8438 14.768C99.4838 14.064 100.22 13.52 101.052 13.136C101.884 12.72 102.812 12.512 103.836 12.512Z" fill="#141414"/>
<path d="M115.97 0.800016C117.314 0.800016 118.37 1.13602 119.138 1.80802C119.938 2.44802 120.338 3.34402 120.338 4.49602C120.338 5.64802 119.938 6.56002 119.138 7.23202C118.37 7.87202 117.314 8.19202 115.97 8.19202C114.626 8.19202 113.554 7.87202 112.754 7.23202C111.986 6.56002 111.602 5.64802 111.602 4.49602C111.602 3.34402 111.986 2.44802 112.754 1.80802C113.554 1.13602 114.626 0.800016 115.97 0.800016ZM119.714 12.656V33.536C119.714 34.88 119.938 35.792 120.386 36.272C120.866 36.752 121.666 36.992 122.786 36.992V38C122.21 37.968 121.314 37.936 120.098 37.904C118.882 37.84 117.65 37.808 116.402 37.808C115.154 37.808 113.89 37.84 112.61 37.904C111.33 37.936 110.37 37.968 109.73 38V36.992C110.85 36.992 111.634 36.752 112.082 36.272C112.562 35.792 112.802 34.88 112.802 33.536V18.416C112.802 16.976 112.578 15.92 112.13 15.248C111.714 14.544 110.914 14.192 109.73 14.192V13.184C110.754 13.28 111.746 13.328 112.706 13.328C114.05 13.328 115.298 13.28 116.45 13.184C117.634 13.056 118.722 12.88 119.714 12.656Z" fill="#141414"/>
<path d="M137.255 12.512C140.071 12.512 142.279 13.344 143.879 15.008C145.479 16.672 146.279 19.392 146.279 23.168H130.487L130.391 22.256H140.231C140.263 20.688 140.167 19.248 139.943 17.936C139.719 16.592 139.367 15.52 138.887 14.72C138.407 13.92 137.767 13.52 136.967 13.52C135.847 13.52 134.887 14.224 134.087 15.632C133.319 17.04 132.855 19.376 132.695 22.64L132.839 22.928C132.807 23.312 132.775 23.712 132.743 24.128C132.743 24.544 132.743 24.976 132.743 25.424C132.743 27.632 133.047 29.424 133.655 30.8C134.295 32.176 135.095 33.184 136.055 33.824C137.015 34.432 137.991 34.736 138.983 34.736C139.655 34.736 140.343 34.64 141.047 34.448C141.783 34.224 142.519 33.84 143.255 33.296C143.991 32.72 144.679 31.92 145.319 30.896L146.183 31.184C145.799 32.4 145.191 33.584 144.359 34.736C143.527 35.888 142.471 36.832 141.191 37.568C139.911 38.304 138.375 38.672 136.583 38.672C134.407 38.672 132.487 38.208 130.823 37.28C129.159 36.352 127.847 34.944 126.887 33.056C125.959 31.168 125.495 28.768 125.495 25.856C125.495 22.88 125.991 20.4 126.983 18.416C128.007 16.432 129.399 14.96 131.159 14C132.951 13.008 134.983 12.512 137.255 12.512Z" fill="#141414"/>
<path d="M158.85 0.416016V33.536C158.85 34.88 159.074 35.792 159.522 36.272C160.002 36.752 160.802 36.992 161.922 36.992V38C161.314 37.968 160.402 37.936 159.186 37.904C157.97 37.84 156.738 37.808 155.49 37.808C154.242 37.808 152.978 37.84 151.698 37.904C150.45 37.936 149.506 37.968 148.866 38V36.992C149.986 36.992 150.77 36.752 151.218 36.272C151.698 35.792 151.938 34.88 151.938 33.536V6.17602C151.938 4.73602 151.714 3.68002 151.266 3.00802C150.85 2.30402 150.05 1.95202 148.866 1.95202V0.944017C149.89 1.04002 150.882 1.08802 151.842 1.08802C153.154 1.08802 154.402 1.04002 155.586 0.944017C156.77 0.816017 157.858 0.640017 158.85 0.416016Z" fill="#141414"/>
<path d="M174.038 0.416016V33.536C174.038 34.88 174.262 35.792 174.71 36.272C175.19 36.752 175.99 36.992 177.11 36.992V38C176.502 37.968 175.59 37.936 174.374 37.904C173.158 37.84 171.926 37.808 170.678 37.808C169.43 37.808 168.166 37.84 166.886 37.904C165.638 37.936 164.694 37.968 164.054 38V36.992C165.174 36.992 165.958 36.752 166.406 36.272C166.886 35.792 167.126 34.88 167.126 33.536V6.17602C167.126 4.73602 166.902 3.68002 166.454 3.00802C166.038 2.30402 165.238 1.95202 164.054 1.95202V0.944017C165.078 1.04002 166.07 1.08802 167.03 1.08802C168.342 1.08802 169.59 1.04002 170.774 0.944017C171.958 0.816017 173.046 0.640017 174.038 0.416016Z" fill="#141414"/>
<path d="M185.776 38.336C184.336 38.336 183.136 38.064 182.176 37.52C181.216 36.976 180.512 36.256 180.064 35.36C179.616 34.432 179.392 33.424 179.392 32.336C179.392 30.96 179.696 29.84 180.304 28.976C180.944 28.112 181.76 27.408 182.752 26.864C183.744 26.32 184.784 25.872 185.872 25.52C186.992 25.168 188.048 24.832 189.04 24.512C190.064 24.16 190.88 23.76 191.488 23.312C192.128 22.832 192.448 22.224 192.448 21.488V17.744C192.448 16.912 192.304 16.176 192.016 15.536C191.76 14.864 191.344 14.352 190.768 14C190.224 13.648 189.504 13.472 188.608 13.472C187.968 13.472 187.328 13.568 186.688 13.76C186.048 13.92 185.52 14.208 185.104 14.624C186 14.944 186.688 15.44 187.168 16.112C187.68 16.752 187.936 17.488 187.936 18.32C187.936 19.408 187.552 20.272 186.784 20.912C186.048 21.552 185.168 21.872 184.144 21.872C182.992 21.872 182.112 21.52 181.504 20.816C180.928 20.08 180.64 19.2 180.64 18.176C180.64 17.248 180.864 16.48 181.312 15.872C181.792 15.264 182.448 14.688 183.28 14.144C184.176 13.632 185.248 13.232 186.496 12.944C187.776 12.656 189.152 12.512 190.624 12.512C192.096 12.512 193.424 12.672 194.608 12.992C195.792 13.28 196.784 13.824 197.584 14.624C198.32 15.36 198.8 16.272 199.024 17.36C199.248 18.416 199.36 19.76 199.36 21.392V34.448C199.36 35.248 199.44 35.808 199.6 36.128C199.76 36.416 200.032 36.56 200.416 36.56C200.704 36.56 200.976 36.48 201.232 36.32C201.52 36.16 201.824 35.968 202.144 35.744L202.624 36.56C201.952 37.136 201.168 37.584 200.272 37.904C199.408 38.192 198.432 38.336 197.344 38.336C196.16 38.336 195.216 38.176 194.512 37.856C193.808 37.504 193.296 37.04 192.976 36.464C192.688 35.888 192.544 35.216 192.544 34.448C191.776 35.664 190.848 36.624 189.76 37.328C188.672 38 187.344 38.336 185.776 38.336ZM189.184 35.264C189.824 35.264 190.4 35.12 190.912 34.832C191.456 34.512 191.968 34 192.448 33.296V23.456C192.16 23.936 191.76 24.368 191.248 24.752C190.736 25.136 190.192 25.536 189.616 25.952C189.04 26.336 188.48 26.768 187.936 27.248C187.424 27.728 187.008 28.32 186.688 29.024C186.368 29.728 186.208 30.576 186.208 31.568C186.208 32.816 186.48 33.744 187.024 34.352C187.568 34.96 188.288 35.264 189.184 35.264Z" fill="#141414"/>
<path d="M256.724 4.01602V4.97602C255.7 5.00802 254.932 5.13602 254.42 5.36002C253.908 5.55202 253.556 5.93602 253.364 6.51202C253.204 7.05602 253.124 7.92002 253.124 9.10402V32.912C253.124 34.064 253.204 34.928 253.364 35.504C253.556 36.08 253.908 36.464 254.42 36.656C254.932 36.848 255.7 36.976 256.724 37.04V38C255.828 37.936 254.692 37.904 253.316 37.904C251.972 37.872 250.596 37.856 249.188 37.856C247.652 37.856 246.212 37.872 244.868 37.904C243.524 37.904 242.436 37.936 241.604 38V37.04C242.692 36.976 243.508 36.848 244.052 36.656C244.628 36.464 245.012 36.08 245.204 35.504C245.396 34.928 245.492 34.064 245.492 32.912V6.94402H245.828L233.924 38.048H233.156L220.196 7.13602V30.128C220.196 31.888 220.292 33.248 220.484 34.208C220.676 35.136 221.092 35.808 221.732 36.224C222.404 36.608 223.444 36.88 224.852 37.04V38C224.244 37.936 223.444 37.904 222.452 37.904C221.46 37.872 220.532 37.856 219.668 37.856C218.932 37.856 218.18 37.872 217.412 37.904C216.644 37.904 216.004 37.936 215.492 38V37.04C216.516 36.88 217.284 36.608 217.796 36.224C218.308 35.84 218.644 35.216 218.804 34.352C218.996 33.456 219.092 32.24 219.092 30.704V9.10402C219.092 7.92002 218.996 7.05602 218.804 6.51202C218.644 5.93602 218.292 5.55202 217.748 5.36002C217.236 5.13602 216.484 5.00802 215.492 4.97602V4.01602C216.004 4.04802 216.644 4.08002 217.412 4.11202C218.18 4.14402 218.932 4.16002 219.668 4.16002C221.044 4.16002 222.388 4.14402 223.7 4.11202C225.044 4.08002 226.228 4.04802 227.252 4.01602L237.332 28.352L236.132 29.456L245.78 4.16002C246.324 4.16002 246.884 4.16002 247.46 4.16002C248.036 4.16002 248.612 4.16002 249.188 4.16002C250.596 4.16002 251.972 4.14402 253.316 4.11202C254.692 4.08002 255.828 4.04802 256.724 4.01602Z" fill="#141414"/>
<path d="M265.689 0.800016C267.033 0.800016 268.089 1.13602 268.857 1.80802C269.657 2.44802 270.057 3.34402 270.057 4.49602C270.057 5.64802 269.657 6.56002 268.857 7.23202C268.089 7.87202 267.033 8.19202 265.689 8.19202C264.345 8.19202 263.273 7.87202 262.473 7.23202C261.705 6.56002 261.321 5.64802 261.321 4.49602C261.321 3.34402 261.705 2.44802 262.473 1.80802C263.273 1.13602 264.345 0.800016 265.689 0.800016ZM269.433 12.656V33.536C269.433 34.88 269.657 35.792 270.105 36.272C270.585 36.752 271.385 36.992 272.505 36.992V38C271.929 37.968 271.033 37.936 269.817 37.904C268.601 37.84 267.369 37.808 266.121 37.808C264.873 37.808 263.609 37.84 262.329 37.904C261.049 37.936 260.089 37.968 259.449 38V36.992C260.569 36.992 261.353 36.752 261.801 36.272C262.281 35.792 262.521 34.88 262.521 33.536V18.416C262.521 16.976 262.297 15.92 261.849 15.248C261.433 14.544 260.633 14.192 259.449 14.192V13.184C260.473 13.28 261.465 13.328 262.425 13.328C263.769 13.328 265.017 13.28 266.169 13.184C267.353 13.056 268.441 12.88 269.433 12.656Z" fill="#141414"/>
<path d="M284.381 0.416016V33.536C284.381 34.88 284.605 35.792 285.053 36.272C285.533 36.752 286.333 36.992 287.453 36.992V38C286.845 37.968 285.933 37.936 284.717 37.904C283.501 37.84 282.269 37.808 281.021 37.808C279.773 37.808 278.509 37.84 277.229 37.904C275.981 37.936 275.037 37.968 274.397 38V36.992C275.517 36.992 276.301 36.752 276.749 36.272C277.229 35.792 277.469 34.88 277.469 33.536V6.17602C277.469 4.73602 277.245 3.68002 276.797 3.00802C276.381 2.30402 275.581 1.95202 274.397 1.95202V0.944017C275.421 1.04002 276.413 1.08802 277.373 1.08802C278.685 1.08802 279.933 1.04002 281.117 0.944017C282.301 0.816017 283.389 0.640017 284.381 0.416016Z" fill="#141414"/>
<path d="M296.12 38.336C294.68 38.336 293.48 38.064 292.52 37.52C291.56 36.976 290.856 36.256 290.408 35.36C289.96 34.432 289.736 33.424 289.736 32.336C289.736 30.96 290.04 29.84 290.648 28.976C291.288 28.112 292.104 27.408 293.096 26.864C294.088 26.32 295.128 25.872 296.216 25.52C297.336 25.168 298.392 24.832 299.384 24.512C300.408 24.16 301.224 23.76 301.832 23.312C302.472 22.832 302.792 22.224 302.792 21.488V17.744C302.792 16.912 302.648 16.176 302.36 15.536C302.104 14.864 301.688 14.352 301.112 14C300.568 13.648 299.848 13.472 298.952 13.472C298.312 13.472 297.672 13.568 297.032 13.76C296.392 13.92 295.864 14.208 295.448 14.624C296.344 14.944 297.032 15.44 297.512 16.112C298.024 16.752 298.28 17.488 298.28 18.32C298.28 19.408 297.896 20.272 297.128 20.912C296.392 21.552 295.512 21.872 294.488 21.872C293.336 21.872 292.456 21.52 291.848 20.816C291.272 20.08 290.984 19.2 290.984 18.176C290.984 17.248 291.208 16.48 291.656 15.872C292.136 15.264 292.792 14.688 293.624 14.144C294.52 13.632 295.592 13.232 296.84 12.944C298.12 12.656 299.496 12.512 300.968 12.512C302.44 12.512 303.768 12.672 304.952 12.992C306.136 13.28 307.128 13.824 307.928 14.624C308.664 15.36 309.144 16.272 309.368 17.36C309.592 18.416 309.704 19.76 309.704 21.392V34.448C309.704 35.248 309.784 35.808 309.944 36.128C310.104 36.416 310.376 36.56 310.76 36.56C311.048 36.56 311.32 36.48 311.576 36.32C311.864 36.16 312.168 35.968 312.488 35.744L312.968 36.56C312.296 37.136 311.512 37.584 310.616 37.904C309.752 38.192 308.776 38.336 307.688 38.336C306.504 38.336 305.56 38.176 304.856 37.856C304.152 37.504 303.64 37.04 303.32 36.464C303.032 35.888 302.888 35.216 302.888 34.448C302.12 35.664 301.192 36.624 300.104 37.328C299.016 38 297.688 38.336 296.12 38.336ZM299.528 35.264C300.168 35.264 300.744 35.12 301.256 34.832C301.8 34.512 302.312 34 302.792 33.296V23.456C302.504 23.936 302.104 24.368 301.592 24.752C301.08 25.136 300.536 25.536 299.96 25.952C299.384 26.336 298.824 26.768 298.28 27.248C297.768 27.728 297.352 28.32 297.032 29.024C296.712 29.728 296.552 30.576 296.552 31.568C296.552 32.816 296.824 33.744 297.368 34.352C297.912 34.96 298.632 35.264 299.528 35.264Z" fill="#141414"/>
<path d="M332.195 12.512C333.539 12.512 334.627 12.688 335.459 13.04C336.323 13.36 336.995 13.808 337.475 14.384C337.987 14.992 338.355 15.776 338.579 16.736C338.835 17.696 338.963 18.992 338.963 20.624V33.536C338.963 34.88 339.187 35.792 339.635 36.272C340.115 36.752 340.915 36.992 342.035 36.992V38C341.427 37.968 340.515 37.936 339.299 37.904C338.083 37.84 336.883 37.808 335.699 37.808C334.483 37.808 333.283 37.84 332.099 37.904C330.947 37.936 330.067 37.968 329.459 38V36.992C330.419 36.992 331.091 36.752 331.475 36.272C331.859 35.792 332.051 34.88 332.051 33.536V18.608C332.051 17.808 331.971 17.12 331.811 16.544C331.651 15.936 331.363 15.472 330.947 15.152C330.531 14.8 329.907 14.624 329.075 14.624C328.211 14.624 327.411 14.864 326.675 15.344C325.971 15.824 325.395 16.496 324.947 17.36C324.531 18.192 324.323 19.136 324.323 20.192V33.536C324.323 34.88 324.515 35.792 324.899 36.272C325.315 36.752 325.987 36.992 326.915 36.992V38C326.339 37.968 325.491 37.936 324.371 37.904C323.283 37.84 322.147 37.808 320.963 37.808C319.747 37.808 318.499 37.84 317.219 37.904C315.939 37.936 314.979 37.968 314.339 38V36.992C315.459 36.992 316.243 36.752 316.691 36.272C317.171 35.792 317.411 34.88 317.411 33.536V18.416C317.411 16.976 317.187 15.92 316.739 15.248C316.323 14.544 315.523 14.192 314.339 14.192V13.184C315.363 13.28 316.355 13.328 317.315 13.328C318.659 13.328 319.907 13.28 321.059 13.184C322.243 13.056 323.331 12.88 324.323 12.656V16.976C325.123 15.344 326.211 14.192 327.587 13.52C328.963 12.848 330.499 12.512 332.195 12.512Z" fill="#141414"/>
<path d="M350.064 0.800016C351.408 0.800016 352.464 1.13602 353.232 1.80802C354.032 2.44802 354.432 3.34402 354.432 4.49602C354.432 5.64802 354.032 6.56002 353.232 7.23202C352.464 7.87202 351.408 8.19202 350.064 8.19202C348.72 8.19202 347.648 7.87202 346.848 7.23202C346.08 6.56002 345.696 5.64802 345.696 4.49602C345.696 3.34402 346.08 2.44802 346.848 1.80802C347.648 1.13602 348.72 0.800016 350.064 0.800016ZM353.808 12.656V33.536C353.808 34.88 354.032 35.792 354.48 36.272C354.96 36.752 355.76 36.992 356.88 36.992V38C356.304 37.968 355.408 37.936 354.192 37.904C352.976 37.84 351.744 37.808 350.496 37.808C349.248 37.808 347.984 37.84 346.704 37.904C345.424 37.936 344.464 37.968 343.824 38V36.992C344.944 36.992 345.728 36.752 346.176 36.272C346.656 35.792 346.896 34.88 346.896 33.536V18.416C346.896 16.976 346.672 15.92 346.224 15.248C345.808 14.544 345.008 14.192 343.824 14.192V13.184C344.848 13.28 345.84 13.328 346.8 13.328C348.144 13.328 349.392 13.28 350.544 13.184C351.728 13.056 352.816 12.88 353.808 12.656Z" fill="#141414"/>
</svg>
